# xmcd
#
# Track frame offsets: 
#        150
#        11104
#        23155
#        33339
#        44862
#        57633
#        67293
#        78094
#        88226
#        98051
#        110394
#        122998
#        138503
#        147580
#        159102
#
# Disc length: 2264 seconds
#
# Revision: 0
# Processed by: cddbd v1.5.2PL0 Copyright (c) Steve Scherf et al.
# Submitted via: ExactAudioCopy v1.0b4
#
DISCID=d908d60f
DTITLE=Sonny Boy Williamson - The Chess Years Vol 4 (LP)
DYEAR=1900
DGENRE=Blues
TTITLE0=Down Child
TTITLE1=Trust My Baby
TTITLE2=Somebody Help Me
TTITLE3=This Old Life
TTITLE4=Too Young To Die
TTITLE5=She's My Baby
TTITLE6=Stop Right Now
TTITLE7=That's All I Want
TTITLE8=Too Close Together
TTITLE9=The Hunt
TTITLE10=Too Old To Think
TTITLE11=Nine Below Zero
TTITLE12=One Way Out
TTITLE13=Bye Bye Bird
TTITLE14=Got To Move
EXTD=
EXTT0=
EXTT1=
EXTT2=
EXTT3=
EXTT4=
EXTT5=
EXTT6=
EXTT7=
EXTT8=
EXTT9=
EXTT10=
EXTT11=
EXTT12=
EXTT13=
EXTT14=
PLAYORDER=
